inDegrees=no
num_controls=7
num_derivatives=13
num_iterations=135
num_multipliers=7
num_parameters=0
num_slacks=7
num_states=26
objective=0.545110
objective_accelerations=0.042235
objective_balance=0.003909
objective_effort=0.041210
objective_height=0.448303
objective_ligament=0.009454
solver_duration=1472.631582
status=Solve_Succeeded
success=true
DataType=double
version=3
OpenSimVersion=4.5
endheader
time	/jointset/ground_pelvis/pelvis_tilt/value	/jointset/ground_pelvis/pelvis_tx/value	/jointset/ground_pelvis/pelvis_ty/value	/jointset/hip_r/hip_flexion_r/value	/jointset/hip_r/hip_adduction_r/value	/jointset/hip_r/hip_rotation_r/value	/jointset/back/lumbar_extension/value	/jointset/patellofemoral_r/patellar_flexion_r/value	/jointset/knee_r/knee_flexion_r/value	/jointset/knee_r/knee_adduction_r/value	/jointset/knee_r/knee_rotation_r/value	/jointset/ankle_r/ankle_angle_r/value	/jointset/subtalar_r/subtalar_angle_r/value	/jointset/ground_pelvis/pelvis_tilt/speed	/jointset/ground_pelvis/pelvis_tx/speed	/jointset/ground_pelvis/pelvis_ty/speed	/jointset/hip_r/hip_flexion_r/speed	/jointset/hip_r/hip_adduction_r/speed	/jointset/hip_r/hip_rotation_r/speed	/jointset/back/lumbar_extension/speed	/jointset/patellofemoral_r/patellar_flexion_r/speed	/jointset/knee_r/knee_flexion_r/speed	/jointset/knee_r/knee_adduction_r/speed	/jointset/knee_r/knee_rotation_r/speed	/jointset/ankle_r/ankle_angle_r/speed	/jointset/subtalar_r/subtalar_angle_r/speed	/forceset/tau_hip_flexion_r	/forceset/tau_hip_adduction_r	/forceset/tau_hip_rotation_r	/forceset/tau_knee_flexion_r	/forceset/tau_ankle_angle_r	/forceset/tau_subtalar_angle_r	/forceset/tau_lumbar_extension	lambda_cid13_p0	lambda_cid14_p0	lambda_cid14_p1	lambda_cid14_p2	lambda_cid14_p3	lambda_cid14_p4	lambda_cid14_p5	/jointset/ground_pelvis/pelvis_tilt/accel	/jointset/ground_pelvis/pelvis_tx/accel	/jointset/ground_pelvis/pelvis_ty/accel	/jointset/hip_r/hip_flexion_r/accel	/jointset/hip_r/hip_adduction_r/accel	/jointset/hip_r/hip_rotation_r/accel	/jointset/back/lumbar_extension/accel	/jointset/patellofemoral_r/patellar_flexion_r/accel	/jointset/knee_r/knee_flexion_r/accel	/jointset/knee_r/knee_adduction_r/accel	/jointset/knee_r/knee_rotation_r/accel	/jointset/ankle_r/ankle_angle_r/accel	/jointset/subtalar_r/subtalar_angle_r/accel	gamma_cid13_p0	gamma_cid14_p0	gamma_cid14_p1	gamma_cid14_p2	gamma_cid14_p3	gamma_cid14_p4	gamma_cid14_p5
1.5	-0.2369165520465563	0.001721395313114084	0.847053654954894	0.8884576586202139	-0.2252554794798845	-0.1423473052302182	-0.3067633995841063	0.6524787862283464	0.6524787862283017	0.03666180574799947	0.1744704352402774	0.1681311773104613	0.03634887692454793	0.5822568265897892	0.2462913812448604	0.4091250652823383	-2.026660236079099	0.0118600209358878	-0.2918310737331921	0.6991879997920009	-1.746384587483486	-1.74638458748334	0.2766437005754472	-2.692632186972443e-05	-0.382108911573715	-0.08293443759727755	-0.1497480459128636	-0.02149503281304183	0.00779075889786751	-0.2917983242884939	0.110615461159845	-0.009287073464274884	0.1800042423159079	-33.95844393760044	-6.098465545641842	-0.7575472299006424	-4.380723563526721	-2.920618378916762	-658.4212480677182	58.39629917261125	0.2956500276477017	0.5609950453284031	-0.4488747629545738	-1.2198678812237	0.006664042046668052	-0.5089024490087107	1.711998772429325	-1.116494126635699	-1.116494126635695	0.4550552122200603	0.0009417974376151959	-0.3133943679736986	-0.04048480124472374	1.353674240245214e-07	1.945652441728011e-07	-4.896865262158011e-07	1.281203790705397e-06	-6.352355077363199e-08	2.854627170517673e-07	-4.642734277423922e-07
1.51	-0.2310797240566237	0.004211978794860584	0.8511215464768805	0.8681324620271046	-0.2251375492196383	-0.1452898906785058	-0.2996876527213684	0.6349615973810088	0.6349615973809177	0.03945334417607808	0.1744703720499269	0.1642946240526204	0.03551633735055133	0.5850206492915058	0.2517816454671367	0.4043588011521158	-2.038067234292282	0.01172201716082066	-0.2966574282540516	0.715820249140742	-1.7567788367433	-1.756778836743277	0.2816535225682231	4.772178557602082e-06	-0.3851459991677993	-0.08356287224959424	-0.1412833761781169	-0.02311261480492645	0.007161727365924686	-0.2891899424029425	0.1127179900059035	-0.009963982927177852	0.1726534271642599	-34.8700322118713	-5.205302621227656	-0.8030878818621401	-4.478611364602955	-3.07983419407687	-653.7966286964459	58.43755412057985	0.2535502504346192	0.5364788538758368	-0.5046037351080004	-1.054311518804463	-0.02449679744437702	-0.4649786999414669	1.617669473848077	-0.9597679999119039	-0.9597679999302985	0.5223589362540565	0.003117729772907299	-0.2904940560497056	-0.07236292927391504	1.432440687985807e-07	2.031159883425415e-07	-5.450152016037371e-07	1.332914879833035e-06	-6.387514146105252e-08	3.089086430231665e-07	-5.170401294374902e-07
1.52	-0.2252178974678744	0.006756152267469526	0.8551389550581544	0.8477025563063757	-0.2250210918391744	-0.1482798350212658	-0.2924498170735928	0.6173486905062222	0.6173486905060833	0.04229466347277507	0.1744703926152636	0.1604293742986539	0.0346778454036218	0.5872565463532643	0.2570093794173487	0.3990284771398281	-2.047602061603015	0.01156544497931414	-0.3013028526275859	0.7316057567995491	-1.76552819297342	-1.76552819297352	0.2865998742989075	-1.017518391041656e-05	-0.3878482107988393	-0.08412491218386192	-0.1328187064433672	-0.02473019679681072	0.006532695833965175	-0.28658156051739	0.1148205188519624	-0.0106408923900798	0.1653026120126143	-35.74978753216633	-4.319003995322256	-0.8462614604607525	-4.58095408065684	-3.240336544209774	-649.2844051592837	58.56017532293438	0.1900648996560892	0.5084889909155799	-0.5616867393676104	-0.8454337007333763	0.002950360758793312	-0.4727164195437037	1.542650434442498	-0.7875155206969883	-0.7875155206969854	0.4423611598017827	-0.008387375141453126	-0.2464191753647975	-0.0272058576349117	1.526213316941437e-07	2.073283778959637e-07	-6.418383319425806e-07	1.356730449181268e-06	-5.701678749684997e-08	3.294567800177539e-07	-5.803467238836808e-07
1.53	-0.2193363687572022	0.009351243317004683	0.8591003043589598	0.8271866971477748	-0.2249063608348544	-0.1513157245269652	-0.2850585702635254	0.5996566039837012	0.5996566039836	0.04518500762568951	0.1744704039273905	0.1565388185245059	0.03383400768591988	0.588956440114797	0.2619595901916502	0.3931528179650981	-2.055243860442336	0.01137785182108483	-0.3058504891315542	0.7464827087220947	-1.772598581735212	-1.77259858173528	0.2914478791630201	9.199866127192555e-06	-0.3901988128816808	-0.08462868470279482	-0.1241451414502081	-0.02666780647824387	0.005920224039082524	-0.2843963318381426	0.1174726384892092	-0.01147890064504037	0.1577895598946703	-36.59304031971011	-3.275397020659263	-0.9361358942367185	-4.670962634207179	-3.483721309375949	-644.9578772264883	58.67554137075282	0.1460578588225191	0.4808941310141656	-0.6137190092988454	-0.6746397215797829	-0.02994557566658233	-0.4418462871843412	1.436083097361197	-0.6232549779622443	-0.6232549779575414	0.50280153179604	0.006876260692232811	-0.2197436163006079	-0.05984804647530462	1.635930013438044e-07	2.069312656695479e-07	-7.827493206667629e-07	1.350907028763883e-06	-4.249786734029801e-08	3.469260162244788e-07	-6.548519543779075e-07
1.54	-0.2134406198600313	0.01199435787634815	0.8630002543674635	0.806604202651571	-0.2247935720464271	-0.1543963022019764	-0.2775233808289925	0.5819025226887549	0.5819025226886912	0.04812318810366244	0.1744705642531373	0.1526266841512182	0.03298555522353806	0.5901005836531585	0.2666140813790114	0.3867486186794603	-2.06092912912359	0.01117700180074331	-0.3102404864899596	0.7603942816926678	-1.777927147458683	-1.77792714745872	0.2961671393103346	1.962754079948682e-05	-0.3921639306267929	-0.08504786111984088	-0.1154715764570457	-0.02860541615967597	0.005307752244178373	-0.2822111031588934	0.1201247581264569	-0.01231690889999898	0.1502765077767285	-37.39512292652611	-2.239177292743314	-1.023553356596043	-4.765647639971817	-3.725855582202141	-640.7516601269638	58.87711557622314	0.07891485502186862	0.4493450735275386	-0.6673947615491713	-0.4541276691201975	0.0002989883363537586	-0.4411885904311558	1.349574644047995	-0.4391509130329562	-0.4391509130329257	0.4166122164421693	-0.01017685021451724	-0.1693223078188863	-0.01028663725753762	1.736362453199511e-07	2.054232698326035e-07	-9.12614347897551e-07	1.340775896479595e-06	-2.804945812395497e-08	3.596615912048843e-07	-7.227254256768165e-07
